HIERARCHY
ROOT Hips
{
  OFFSET 0 89.5177 0.535
  CHANNELS 6 Xposition Yposition Zposition Zrotation Xrotation Yrotation
  JOINT Spine
  {
    OFFSET 12.0259 -0.162855 1.69034e-005
    CHANNELS 3 Zrotation Xrotation Yrotation
    JOINT Spine1
    {
      OFFSET 15.3169 -0.0121922 0
      CHANNELS 3 Zrotation Xrotation Yrotation
      JOINT Spine2
      {
        OFFSET 15.3176 -0.0121908 0
        CHANNELS 3 Zrotation Xrotation Yrotation
        JOINT Neck
        {
          OFFSET 19.9142 1.56338 0
          CHANNELS 3 Zrotation Xrotation Yrotation
          JOINT Head
          {
            OFFSET 6.92651 0 0
            CHANNELS 3 Zrotation Xrotation Yrotation
            End Site
            {
              OFFSET 20.7666 0 0
            }
          }
          JOINT LeftShoulder
          {
            OFFSET -6.20654 0.708824 7.28219
            CHANNELS 3 Zrotation Xrotation Yrotation
            JOINT LeftArm
            {
              OFFSET 14.108 0 -1.52588e-005
              CHANNELS 3 Zrotation Xrotation Yrotation
              JOINT LeftForeArm
              {
                OFFSET 28.5802 0 0
                CHANNELS 3 Zrotation Xrotation Yrotation
                JOINT LeftHand
                {
                  OFFSET 27.092 0 0
                  CHANNELS 3 Zrotation Xrotation Yrotation
                  End Site
                  {
                    OFFSET 9.55928 -0.186424 0.145352
                  }
                }
              }
            }
          }
          JOINT RightShoulder
          {
            OFFSET -6.20654 0.708866 -7.28218
            CHANNELS 3 Zrotation Xrotation Yrotation
            JOINT RightArm
            {
              OFFSET 14.108 0 1.52588e-005
              CHANNELS 3 Zrotation Xrotation Yrotation
              JOINT RightForeArm
              {
                OFFSET 28.5802 0 0
                CHANNELS 3 Zrotation Xrotation Yrotation
                JOINT RightHand
                {
                  OFFSET 27.092 0 0
                  CHANNELS 3 Zrotation Xrotation Yrotation
                  End Site
                  {
                    OFFSET 9.55929 -0.186417 -0.145354
                  }
                }
              }
            }
          }
        }
      }
    }
  }
  JOINT LeftUpLeg
  {
    OFFSET 0.005 -0.535 8.837
    CHANNELS 3 Zrotation Xrotation Yrotation
    JOINT LeftLeg
    {
      OFFSET 39.9035 0 0
      CHANNELS 3 Zrotation Xrotation Yrotation
      JOINT LeftFoot
      {
        OFFSET 39.6689 0 0
        CHANNELS 3 Zrotation Xrotation Yrotation
        JOINT LeftToe
        {
          OFFSET 10.1624 13.6296 0
          CHANNELS 3 Zrotation Xrotation Yrotation
          End Site
          {
            OFFSET 8.38147 0 0
          }
        }
      }
    }
  }
  JOINT RightUpLeg
  {
    OFFSET 0.005 -0.535 -8.837
    CHANNELS 3 Zrotation Xrotation Yrotation
    JOINT RightLeg
    {
      OFFSET 39.9035 0 0
      CHANNELS 3 Zrotation Xrotation Yrotation
      JOINT RightFoot
      {
        OFFSET 39.6689 0 0
        CHANNELS 3 Zrotation Xrotation Yrotation
        JOINT RightToe
        {
          OFFSET 10.1624 13.6296 0
          CHANNELS 3 Zrotation Xrotation Yrotation
          End Site
          {
            OFFSET 8.38147 0 0
          }
        }
      }
    }
  }
}
MOTION
Frames:	11
Frame Time:	0.0333333
285.558 89.3441 27.5012 26.2909 -84.5402 -58.9148 1.55034 -1.39665 -1.18139 3.07294 -2.82401 -2.32544 3.07294 -2.82401 -2.32545 -8.30788e-012 -9.0191e-006 -5.27751e-005 5.28105 1.98289 -1.11156 -178.049 -13.2548 -81.5501 5.4858 -43.1682 20.5288 -16.6871 0 7.15625e-015 -62.7267 -33.9016 -53.2149 179.791 10.2115 91.1798 45.9018 68.1892 -63.4282 -6.40775 0 -1.98785e-016 -52.4799 26.4216 44.2773 6.9826 1.18245 177.46 -10.5467 0 3.97569e-016 11.2406 5.91017 -12.1334 90 -1.38528e-015 -0 6.27619 -1.68628 173.092 -13.2335 3.97569e-016 -4.96962e-017 15.0534 -4.96268 6.1693 90 1.16165e-015 -0 
285.544 89.3439 27.4872 25.823 -84.5687 -59.3906 1.53093 -1.39872 -1.18041 3.0341 -2.82771 -2.32391 3.0341 -2.82771 -2.32392 -8.30788e-012 -9.0191e-006 -5.27751e-005 5.39187 1.94512 -1.02081 -178.049 -13.2509 -81.5481 5.43928 -43.1446 20.479 -16.6474 -1.27222e-014 3.18055e-015 -62.7606 -33.9243 -53.2721 179.791 10.231 91.174 45.8522 68.1999 -63.3546 -6.41376 4.77083e-015 1.98785e-016 -52.5396 26.4338 44.3443 7.01099 1.20475 177.447 -10.5184 -7.95139e-016 -6.95746e-016 11.2247 5.87711 -12.04 90 1.11816e-015 1.98785e-016 6.28176 -1.65518 173.085 -13.2221 -1.98785e-016 -2.98177e-016 15.0681 -4.96094 6.17494 90 1.44119e-015 -0 
285.532 89.3439 27.4753 25.3771 -84.5954 -59.8464 1.51312 -1.40241 -1.17799 2.99845 -2.83469 -2.31943 2.99845 -2.83469 -2.31944 -8.30748e-012 -9.0191e-006 -5.27751e-005 5.4719 1.86935 -0.960102 -178.057 -13.2208 -81.5634 5.47307 -43.069 20.4494 -16.6504 -1.27222e-014 -0 -62.742 -33.9171 -53.2237 179.795 10.2426 91.1504 46.0018 68.2697 -63.473 -6.41568 -4.77083e-015 5.96354e-016 -52.6528 26.3917 44.4529 7.02876 1.22825 177.436 -10.506 -1.59028e-015 -2.98177e-016 11.2271 5.86825 -12.0011 90 1.758e-015 -1.98785e-016 6.27961 -1.63095 173.08 -13.2135 -1.98785e-016 -4.96962e-017 15.0296 -4.98152 6.22671 90 1.31695e-015 7.95139e-016 
285.528 89.3438 27.4748 25.1424 -84.6312 -60.1002 1.49489 -1.40382 -1.17287 2.96232 -2.83391 -2.30705 2.96232 -2.83391 -2.30706 -8.30748e-012 -9.0191e-006 -5.27751e-005 5.5182 1.77492 -0.894192 -178.069 -13.1904 -81.5972 5.52651 -43.016 20.4578 -16.6523 0 -1.59028e-015 -62.6946 -33.9358 -53.1883 179.792 10.2237 91.1738 46.0616 68.215 -63.446 -6.43824 -4.77083e-015 -7.95139e-016 -52.4581 26.4362 44.3033 7.00062 1.2493 177.452 -10.528 1.59028e-015 6.95746e-016 11.2437 5.8614 -12.0027 90 8.07563e-016 -0 6.26662 -1.59432 173.095 -13.189 -1.98785e-016 -0 15.0027 -4.97741 6.23478 90 4.72114e-016 -1.59028e-015 
285.528 89.3441 27.4716 24.7154 -84.6483 -60.537 1.48469 -1.40493 -1.16754 2.94201 -2.83243 -2.29921 2.94201 -2.83243 -2.29922 -8.30669e-012 -9.0191e-006 -5.27751e-005 5.50985 1.7253 -0.788008 -178.083 -13.148 -81.6305 5.58104 -42.9767 20.4359 -16.6705 6.36111e-015 -0 -62.449 -34.125 -53.0311 179.792 10.1877 91.1738 46.1536 68.2004 -63.3979 -6.49184 3.18055e-015 1.98785e-016 -52.316 26.5909 44.2928 7.01309 1.29698 177.454 -10.5293 7.95139e-016 9.93923e-017 11.2429 5.85372 -11.9658 90 3.14949e-015 -0 6.22458 -1.6009 173.094 -13.2644 0 2.98177e-016 15.057 -5.02431 6.28988 90 3.72721e-017 -7.95139e-016 
285.529 89.3444 27.473 24.5331 -84.6611 -60.7318 1.4821 -1.40593 -1.16389 2.93695 -2.83164 -2.292 2.93695 -2.83164 -2.29201 -8.30669e-012 -9.0191e-006 -5.27751e-005 5.45783 1.65521 -0.649538 -178.096 -13.1035 -81.657 5.55961 -42.9891 20.3378 -16.6335 -3.18055e-015 1.59028e-015 -62.5914 -33.9326 -53.0468 179.795 10.1647 91.1635 46.1457 68.1635 -63.1948 -6.48628 -3.18055e-015 -0 -52.0453 26.518 43.9441 7.00815 1.30593 177.467 -10.5373 -2.38542e-015 5.96354e-016 11.256 5.85484 -11.9892 90 1.4971e-015 1.98785e-016 6.2266 -1.58444 173.092 -13.2465 1.98785e-016 1.98785e-016 15.0316 -5.03304 6.32493 90 2.60905e-016 -7.95139e-016 
285.529 89.3448 27.4849 24.732 -84.6566 -60.5269 1.48322 -1.40704 -1.16251 2.93894 -2.84301 -2.28908 2.93894 -2.84301 -2.28909 -8.30788e-012 -9.0191e-006 -5.27751e-005 5.3472 1.57212 -0.540635 -178.117 -13.0236 -81.6974 5.63597 -42.9381 20.2641 -16.6673 -6.36111e-015 -3.97569e-015 -62.5099 -33.9832 -52.9822 179.8 10.1724 91.1329 46.5 68.247 -63.3761 -6.54597 -1.59028e-015 3.97569e-016 -52.2235 26.6493 44.31 7.00713 1.27969 177.449 -10.5173 -7.95139e-016 -2.98177e-016 11.2287 5.86012 -11.9115 90 1.34801e-015 -1.98785e-016 6.2117 -1.58703 173.095 -13.2612 -1.98785e-016 -5.96354e-016 15.0611 -5.0191 6.28444 90 -6.89534e-016 -1.59028e-015 
285.529 89.3452 27.4999 24.8829 -84.6682 -60.3767 1.4759 -1.40845 -1.1583 2.92436 -2.84551 -2.28108 2.92436 -2.84551 -2.28109 -8.30669e-012 -9.0191e-006 -5.27751e-005 5.22111 1.50738 -0.38533 -178.137 -12.9764 -81.7555 5.65172 -42.8987 20.1966 -16.6384 6.36111e-015 3.97569e-015 -62.5907 -33.9761 -53.0708 179.802 10.209 91.1155 46.6324 68.237 -63.352 -6.56056 -1.59028e-015 4.96962e-016 -51.9356 26.712 44.0686 6.96444 1.28223 177.462 -10.5451 0 1.98785e-016 11.238 5.86879 -11.9569 90 -1.57785e-015 -1.98785e-016 6.14334 -1.61331 173.103 -13.3424 0 3.47873e-016 15.1022 -5.05518 6.31534 90 -5.65294e-016 -1.59028e-015 
285.529 89.3457 27.5191 24.9683 -84.6802 -60.2934 1.46138 -1.41218 -1.15394 2.89536 -2.85259 -2.27237 2.89536 -2.85259 -2.27238 -8.30748e-012 -9.0191e-006 -5.27751e-005 5.21064 1.42523 -0.284981 -178.147 -12.968 -81.7961 5.67738 -42.9122 20.1581 -16.5964 0 -3.18055e-015 -62.5043 -34.0043 -52.9988 179.804 10.2072 91.1047 47.0072 68.2973 -63.5605 -6.54459 -1.59028e-015 9.93923e-016 -52.0309 26.7292 44.1904 6.92647 1.25698 177.466 -10.5551 -7.95139e-016 8.94531e-016 11.2224 5.82732 -11.9251 90 -8.13775e-016 -0 6.12205 -1.61985 173.106 -13.3238 1.98785e-016 -4.47266e-016 15.0703 -5.03616 6.28495 90 5.59082e-016 1.59028e-015 
285.53 89.3463 27.5392 25.057 -84.6793 -60.2073 1.447 -1.41947 -1.15161 2.86652 -2.86682 -2.26789 2.86652 -2.86682 -2.2679 -8.30748e-012 -9.0191e-006 -5.27751e-005 5.25827 1.40548 -0.154308 -178.157 -12.9689 -81.8408 5.74115 -43.0058 20.1622 -16.5715 -3.18055e-015 -1.59028e-015 -62.4672 -34.0526 -52.9885 179.805 10.2267 91.0972 47.1973 68.2802 -63.648 -6.56008 1.59028e-015 -3.97569e-016 -51.8292 26.7972 44.016 6.9097 1.23585 177.461 -10.5557 0 9.93923e-017 11.2295 5.83899 -11.9677 90 -3.49116e-015 -1.98785e-016 6.06988 -1.64682 173.096 -13.3939 1.98785e-016 4.96962e-017 15.123 -5.07381 6.31675 90 -2.17421e-016 -7.95139e-016 
285.536 89.3471 27.5638 24.8164 -84.6745 -60.4564 1.44104 -1.42232 -1.14752 2.8547 -2.87228 -2.25806 2.8547 -2.87228 -2.25807 -8.30708e-012 -9.0191e-006 -5.27751e-005 5.25288 1.34666 -0.0667937 -178.16 -12.9549 -81.8447 5.76647 -43.1129 20.1042 -16.512 6.36111e-015 3.97569e-015 -62.5575 -33.931 -52.9996 179.812 10.2365 91.06 47.7835 68.3935 -64.1386 -6.57567 -3.18055e-015 -1.98785e-016 -52.0356 26.855 44.2776 6.91006 1.24547 177.468 -10.5546 7.95139e-016 -9.93923e-017 11.2001 5.81611 -11.8737 90 1.13059e-015 -7.95139e-016 6.04994 -1.63178 173.108 -13.4252 1.98785e-016 -4.96962e-016 15.1454 -5.07019 6.28781 90 -2.14315e-016 2.38542e-015 
